<?xml version="1.0" encoding="iso-8859-1"?>
<!-- Uploaded to: SVG Repo, www.svgrepo.com, Generator: SVG Repo Mixer Tools -->
<svg height="800px" width="800px" version="1.1" id="Layer_1" xmlns="http://www.w3.org/2000/svg" xmlns:xlink="http://www.w3.org/1999/xlink" 
	 viewBox="0 0 392.533 392.533" xml:space="preserve">
<path style="fill:#FFFFFF;" d="M326.363,163.491c-3.168-12.671-8.21-24.76-14.933-36.008c-1.939-3.232-2.069-7.24-0.323-10.667
	l18.101-34.521l-18.941-18.941l-34.521,18.101c-3.426,1.745-7.434,1.616-10.667-0.323c-11.184-6.723-23.337-11.766-36.008-14.933
	c-3.685-0.905-6.659-3.685-7.758-7.37l-11.572-37.107h-26.764l-11.572,37.172c-1.164,3.62-4.073,6.4-7.758,7.37
	c-12.671,3.168-24.76,8.21-36.008,14.933c-3.232,1.939-7.24,2.069-10.667,0.323L82.452,63.418L63.511,82.36l18.101,34.521
	c1.745,3.426,1.616,7.434-0.323,10.667c-6.723,11.184-11.766,23.337-14.933,36.008c-0.905,3.685-3.685,6.659-7.37,7.758
	l-37.172,11.572v26.764l37.172,11.572c3.62,1.164,6.4,4.073,7.37,7.758c3.168,12.671,8.21,24.824,14.933,36.008
	c1.939,3.232,2.069,7.24,0.323,10.667l-18.101,34.521l18.941,18.941l34.521-18.101c3.297-1.745,7.434-1.616,10.667,0.323
	c11.184,6.723,23.337,11.766,36.008,14.933c3.685,0.905,6.659,3.685,7.758,7.37l11.572,37.172h26.764l11.572-37.172
	c1.164-3.62,4.073-6.4,7.758-7.37c12.671-3.168,24.824-8.21,36.008-14.933c3.232-1.939,7.24-2.069,10.667-0.323l34.521,18.101
	l18.941-18.941l-18.101-34.521c-1.745-3.426-1.616-7.434,0.323-10.667c6.723-11.184,11.766-23.337,14.933-36.008
	c0.905-3.685,3.685-6.659,7.37-7.758l37.172-11.572v-26.764l-37.172-11.572C330.048,170.15,327.268,167.24,326.363,163.491z"/>
<path style="fill:#FFC10D;" d="M214.072,128.711c0-9.762-7.887-17.648-17.648-17.648s-17.648,7.887-17.648,17.648
	c0,11.895-2.263,23.467-6.465,34.392h48.226C216.206,152.242,214.072,140.606,214.072,128.711z"/>
<path style="fill:#56ACE0;" d="M196.359,219.475c-30.772,0-48.614,13.576-62.384,49.067h124.509
	C244.973,235.119,224.933,219.475,196.359,219.475z"/>
<g>
	<path style="fill:#194F82;" d="M384.998,164.525l-39.111-12.283c-3.103-10.602-7.37-20.881-12.671-30.513l19.006-36.331
		c2.263-4.267,1.422-9.438-1.939-12.735l-30.319-30.319c-3.426-3.426-8.598-4.202-12.735-1.939L270.897,59.41
		c-9.762-5.301-19.911-9.568-30.513-12.671L228.165,7.628C226.679,3.038,222.477,0,217.757,0h-42.731
		c-4.784,0-8.986,3.103-10.408,7.628l-12.283,39.111c-10.602,3.103-20.881,7.37-30.513,12.671L85.491,40.404
		c-4.267-2.263-9.438-1.422-12.735,1.939L42.436,72.663c-3.426,3.426-4.202,8.598-1.939,12.735l19.006,36.331
		c-5.301,9.762-9.568,19.911-12.671,30.513L7.721,164.461c-4.59,1.487-7.628,5.689-7.628,10.408V217.6
		c0,4.784,3.103,8.986,7.628,10.408l39.111,12.283c3.103,10.602,7.37,20.881,12.671,30.513l-19.006,36.331
		c-2.263,4.267-1.422,9.438,1.939,12.735l30.319,30.319c3.426,3.426,8.598,4.202,12.735,1.939l36.331-19.006
		c9.762,5.301,19.911,9.568,30.513,12.671l12.218,39.111c1.422,4.59,5.624,7.628,10.408,7.628h42.731
		c4.784,0,8.986-3.103,10.408-7.628l12.218-39.111c10.602-3.103,20.881-7.37,30.513-12.671l36.331,19.006
		c4.267,2.263,9.438,1.422,12.735-1.939l30.19-30.19c3.426-3.426,4.202-8.598,1.939-12.735l-19.006-36.331
		c5.301-9.762,9.568-19.911,12.671-30.513l39.111-12.218c4.59-1.422,7.628-5.624,7.628-10.408v-42.731
		C392.626,170.15,389.523,165.883,384.998,164.525z M370.84,209.649l-37.172,11.572c-3.62,1.164-6.4,4.073-7.37,7.758
		c-3.168,12.671-8.21,24.76-14.933,36.008c-1.939,3.232-2.069,7.24-0.323,10.667l18.101,34.521l-18.941,18.941l-34.521-18.101
		c-3.426-1.745-7.434-1.616-10.667,0.323c-11.184,6.723-23.337,11.766-36.008,14.933c-3.685,0.905-6.659,3.685-7.758,7.37
		l-11.572,37.172h-26.764l-11.572-37.172c-1.164-3.62-4.073-6.4-7.758-7.37c-12.671-3.168-24.824-8.21-36.008-14.933
		c-3.232-1.939-7.24-2.069-10.667-0.323l-34.521,18.101l-18.941-18.941l18.101-34.521c1.745-3.426,1.616-7.434-0.323-10.667
		c-6.723-11.184-11.766-23.337-14.933-36.008c-0.905-3.685-3.685-6.659-7.37-7.758l-37.172-11.572v-26.764l37.172-11.572
		c3.62-1.164,6.4-4.073,7.37-7.758c3.168-12.671,8.21-24.824,14.933-36.008c1.939-3.232,2.069-7.24,0.323-10.667L63.446,82.36
		l18.941-18.941l34.521,18.101c3.426,1.745,7.434,1.616,10.667-0.323c11.184-6.723,23.337-11.766,36.008-14.933
		c3.685-0.905,6.659-3.685,7.758-7.37l11.572-37.172h26.764l11.572,37.172c1.164,3.62,4.073,6.4,7.758,7.37
		c12.671,3.168,24.76,8.21,36.008,14.933c3.232,1.939,7.24,2.069,10.667,0.323l34.521-18.101l18.941,18.941l-18.101,34.521
		c-1.745,3.426-1.616,7.434,0.323,10.667c6.723,11.184,11.766,23.337,14.933,36.008c0.905,3.685,3.685,6.659,7.37,7.758
		l37.172,11.572V209.649z"/>
	<path style="fill:#194F82;" d="M153.628,184.954h85.527c8.339,0,13.317-9.244,8.727-16.291l-0.388-0.646
		c-7.628-11.636-11.636-25.341-11.636-39.24c0.323-15.968-11.636-38.529-39.499-39.499c-22.044,0-39.952,18.166-39.434,40.404
		c0.323,13.899-4.59,27.345-12.154,39.046C140.246,175.709,145.289,184.954,153.628,184.954z M178.582,128.711
		c0.129-9.762,8.016-17.648,17.778-17.648c9.762,0,17.648,7.887,17.648,17.648c0,11.83,2.263,23.467,6.465,34.392h-48.356
		C176.448,152.242,178.582,140.606,178.582,128.711z"/>
	<path style="fill:#194F82;" d="M196.359,197.689c-55.855,0-75.895,39.693-88.113,78.481c-2.263,7.046,3.038,14.158,10.408,14.158
		H274c7.37,0,12.606-7.111,10.408-14.158C267.858,223.289,239.091,197.689,196.359,197.689z M133.975,268.541
		c13.77-35.491,31.612-49.067,62.384-49.067c28.574,0,48.614,15.709,62.19,49.067H133.975z"/>
</g>
</svg>